<svg preserveAspectRatio="none" overflow="visible" style="display: block;" width="100" height="72" viewBox="0 0 100 72" fill="none" xmlns="http://www.w3.org/2000/svg">
<g id="import-data 1" clip-path="url(#clip0_0_158)">
<path id="Vector" d="M97.1014 0.5H2.89855C1.29773 0.5 0 1.79773 0 3.39855V68.6014C0 70.2023 1.29773 71.5 2.89855 71.5H97.1014C98.7023 71.5 100 70.2023 100 68.6014V3.39855C100 1.79773 98.7023 0.5 97.1014 0.5Z" fill="white"/>
<path id="Vector_2" d="M0 3.39855C0 1.79773 1.29773 0.5 2.89855 0.5H97.1014C98.7023 0.5 100 1.79773 100 3.39855V8.5H0V3.39855Z" fill="#049E38"/>
<path id="Vector_3" d="M24.5507 18H9.44928C8.64886 18 8 18.6489 8 19.4493V24.5507C8 25.3511 8.64886 26 9.44928 26H24.5507C25.3511 26 26 25.3511 26 24.5507V19.4493C26 18.6489 25.3511 18 24.5507 18Z" fill="#F3F4F7"/>
<path id="Vector_4" d="M24.5507 30H9.44928C8.64886 30 8 30.6489 8 31.4493V36.5507C8 37.3511 8.64886 38 9.44928 38H24.5507C25.3511 38 26 37.3511 26 36.5507V31.4493C26 30.6489 25.3511 30 24.5507 30Z" fill="#F3F4F7"/>
<path id="Vector_5" d="M24.5507 42H9.44928C8.64886 42 8 42.6489 8 43.4493V48.5507C8 49.3511 8.64886 50 9.44928 50H24.5507C25.3511 50 26 49.3511 26 48.5507V43.4493C26 42.6489 25.3511 42 24.5507 42Z" fill="#C8CEED"/>
<path id="Vector_6" d="M24.5507 54H9.44928C8.64886 54 8 54.6489 8 55.4493V60.5507C8 61.3511 8.64886 62 9.44928 62H24.5507C25.3511 62 26 61.3511 26 60.5507V55.4493C26 54.6489 25.3511 54 24.5507 54Z" fill="#F3F4F7"/>
<path id="Vector_7" d="M46.5507 18H31.4493C30.6489 18 30 18.6489 30 19.4493V24.5507C30 25.3511 30.6489 26 31.4493 26H46.5507C47.3511 26 48 25.3511 48 24.5507V19.4493C48 18.6489 47.3511 18 46.5507 18Z" fill="#C8CEED"/>
<path id="Vector_8" d="M46.5507 30H31.4493C30.6489 30 30 30.6489 30 31.4493V36.5507C30 37.3511 30.6489 38 31.4493 38H46.5507C47.3511 38 48 37.3511 48 36.5507V31.4493C48 30.6489 47.3511 30 46.5507 30Z" fill="#F3F4F7"/>
<path id="Vector_9" d="M46.5507 42H31.4493C30.6489 42 30 42.6489 30 43.4493V48.5507C30 49.3511 30.6489 50 31.4493 50H46.5507C47.3511 50 48 49.3511 48 48.5507V43.4493C48 42.6489 47.3511 42 46.5507 42Z" fill="#F3F4F7"/>
<path id="Vector_10" d="M46.5507 54H31.4493C30.6489 54 30 54.6489 30 55.4493V60.5507C30 61.3511 30.6489 62 31.4493 62H46.5507C47.3511 62 48 61.3511 48 60.5507V55.4493C48 54.6489 47.3511 54 46.5507 54Z" fill="#C8CEED"/>
<path id="Vector_11" d="M68.5507 18H53.4493C52.6489 18 52 18.6489 52 19.4493V24.5507C52 25.3511 52.6489 26 53.4493 26H68.5507C69.3511 26 70 25.3511 70 24.5507V19.4493C70 18.6489 69.3511 18 68.5507 18Z" fill="#F3F4F7"/>
<path id="Vector_12" d="M68.5507 30H53.4493C52.6489 30 52 30.6489 52 31.4493V36.5507C52 37.3511 52.6489 38 53.4493 38H68.5507C69.3511 38 70 37.3511 70 36.5507V31.4493C70 30.6489 69.3511 30 68.5507 30Z" fill="#C8CEED"/>
<path id="Vector_13" d="M68.5507 42H53.4493C52.6489 42 52 42.6489 52 43.4493V48.5507C52 49.3511 52.6489 50 53.4493 50H68.5507C69.3511 50 70 49.3511 70 48.5507V43.4493C70 42.6489 69.3511 42 68.5507 42Z" fill="#C8CEED"/>
<path id="Vector_14" d="M68.5507 54H53.4493C52.6489 54 52 54.6489 52 55.4493V60.5507C52 61.3511 52.6489 62 53.4493 62H68.5507C69.3511 62 70 61.3511 70 60.5507V55.4493C70 54.6489 69.3511 54 68.5507 54Z" fill="#F3F4F7"/>
<path id="Vector_15" d="M90.5507 18H75.4493C74.6489 18 74 18.6489 74 19.4493V24.5507C74 25.3511 74.6489 26 75.4493 26H90.5507C91.3511 26 92 25.3511 92 24.5507V19.4493C92 18.6489 91.3511 18 90.5507 18Z" fill="#F3F4F7"/>
<path id="Vector_16" d="M90.5507 30H75.4493C74.6489 30 74 30.6489 74 31.4493V36.5507C74 37.3511 74.6489 38 75.4493 38H90.5507C91.3511 38 92 37.3511 92 36.5507V31.4493C92 30.6489 91.3511 30 90.5507 30Z" fill="#F3F4F7"/>
<path id="Vector_17" d="M83.3345 41.7949H83.3304C77.7286 41.7949 73.1875 46.336 73.1875 51.9378C73.1875 57.5395 77.7286 62.0806 83.3304 62.0806H83.3345C88.9363 62.0806 93.4774 57.5395 93.4774 51.9378C93.4774 46.336 88.9363 41.7949 83.3345 41.7949Z" fill="#12AF47"/>
<path id="Vector_18" d="M83.3303 46.1416C83.0769 46.1416 82.908 46.2257 82.739 46.394L78.4971 50.6194C78.178 50.9372 78.178 51.442 78.4971 51.7599C78.8308 52.0923 79.3834 52.0923 79.7171 51.7599L82.4856 49.0021V56.9183C82.4856 57.3685 82.8638 57.7334 83.3303 57.7334C83.7968 57.7334 84.1749 57.3685 84.1749 56.9183V49.0021L86.9434 51.7599C87.2771 52.0923 87.8297 52.0923 88.1634 51.7599C88.4825 51.442 88.4825 50.9372 88.1634 50.6194L83.9215 46.394C83.7526 46.2257 83.5837 46.1416 83.3303 46.1416Z" fill="white"/>
</g>
<defs>
<clipPath id="clip0_0_158">
<rect width="100" height="72" fill="white"/>
</clipPath>
</defs>
</svg>
