<svg preserveAspectRatio="none" width="100%" height="100%" overflow="visible" style="display: block;" viewBox="0 0 40 40" fill="none" xmlns="http://www.w3.org/2000/svg">
<g id="1 1">
<path id="Vector" d="M36.6667 20H26.6667L23.3333 25H16.6667L13.3333 20H3.33333" stroke="var(--stroke-0, #6C73A8)" stroke-width="3.33333" stroke-linecap="round" stroke-linejoin="round"/>
<path id="Vector_2" d="M9.08333 8.51667L3.33333 20V30C3.33333 30.8841 3.68452 31.7319 4.30964 32.357C4.93477 32.9821 5.78261 33.3333 6.66667 33.3333H33.3333C34.2174 33.3333 35.0652 32.9821 35.6904 32.357C36.3155 31.7319 36.6667 30.8841 36.6667 30V20L30.9167 8.51667C30.6407 7.96131 30.2153 7.49395 29.6883 7.16713C29.1612 6.84031 28.5535 6.667 27.9333 6.66667H12.0667C11.4465 6.667 10.8388 6.84031 10.3117 7.16713C9.78471 7.49395 9.3593 7.96131 9.08333 8.51667Z" stroke="var(--stroke-0, #6C73A8)" stroke-width="3.33333" stroke-linecap="round" stroke-linejoin="round"/>
</g>
</svg>
