<svg preserveAspectRatio="none" width="100%" height="100%" overflow="visible" style="display: block;" viewBox="0 0 40 40" fill="none" xmlns="http://www.w3.org/2000/svg">
  <g clip-path="url(#jotform-icon-white-clip)">
    <path d="M40 0H0V40H40V0Z" fill="white"/>
    <path d="M15.4192 30.0408C15.8401 30.4489 15.5426 31.1481 14.9449 31.1481H11.204C10.466 31.1481 9.86537 30.5659 9.86537 29.8504V26.2239C9.86537 25.6444 10.5866 25.3561 11.0076 25.7641L15.4192 30.0408Z" fill="#0A1551"/>
    <path d="M21.2668 30.3231C20.1595 29.223 20.1595 27.4394 21.2668 26.3393L25.2631 22.3691C26.3704 21.269 28.1657 21.269 29.273 22.3691C30.3803 23.4692 30.3803 25.2528 29.273 26.3529L25.2767 30.3231C24.1694 31.4232 22.3741 31.4232 21.2668 30.3231Z" fill="#FFB629"/>
    <path d="M10.7093 20.3469C9.60199 19.2468 9.60199 17.4632 10.7093 16.3631L17.4346 9.67694C18.5419 8.57681 20.3372 8.57681 21.4445 9.67694C22.5518 10.777 22.5518 12.5606 21.4445 13.6607L14.7192 20.3469C13.6119 21.4469 11.8166 21.4469 10.7093 20.3469Z" fill="#0099FF"/>
    <path d="M16.2072 25.1126C15.0998 24.0125 15.0998 22.2288 16.2072 21.1288L25.2942 12.1009C26.4016 11.0008 28.1968 11.0008 29.3042 12.1009C30.4115 13.201 30.4115 14.9846 29.3042 16.0847L20.217 25.1126C19.1098 26.2126 17.3144 26.2126 16.2072 25.1126Z" fill="#FF6100"/>
  </g>
  <defs>
    <clipPath id="jotform-icon-white-clip">
      <rect width="40" height="40" rx="4" fill="white"/>
    </clipPath>
  </defs>
</svg>
